<mxfile host="app.diagrams.net" modified="2023-11-23T08:08:43.412Z" agent="Mozilla/5.0 (Macintosh; Intel Mac OS X 10_15_7) AppleWebKit/537.36 (KHTML, like Gecko) Chrome/119.0.0.0 Safari/537.36" etag="kOMJipQFSuLc7SpAF44N" version="22.1.3" type="github">
  <diagram name="第 1 页" id="PY1gbD0BH82F9g9Azvsy">
    <mxGraphModel dx="1434" dy="790" grid="1" gridSize="10" guides="1" tooltips="1" connect="1" arrows="1" fold="1" page="1" pageScale="1" pageWidth="1600" pageHeight="900" math="0" shadow="0">
      <root>
        <mxCell id="0" />
        <mxCell id="1" parent="0" />
        <mxCell id="L6jPL3bvIjocPBfsfLAo-12" style="edgeStyle=orthogonalEdgeStyle;rounded=0;orthogonalLoop=1;jettySize=auto;html=1;entryX=0;entryY=0.5;entryDx=0;entryDy=0;" edge="1" parent="1" source="L6jPL3bvIjocPBfsfLAo-11" target="L6jPL3bvIjocPBfsfLAo-9">
          <mxGeometry relative="1" as="geometry" />
        </mxCell>
        <mxCell id="L6jPL3bvIjocPBfsfLAo-11" value="" style="rounded=1;whiteSpace=wrap;html=1;fillColor=#ffe6cc;strokeColor=#d79b00;" vertex="1" parent="1">
          <mxGeometry x="270" y="210" width="180" height="570" as="geometry" />
        </mxCell>
        <mxCell id="L6jPL3bvIjocPBfsfLAo-5" value="ResourceErrorPlugin" style="rounded=1;whiteSpace=wrap;html=1;fillColor=#dae8fc;strokeColor=#6c8ebf;" vertex="1" parent="1">
          <mxGeometry x="300" y="330" width="120" height="60" as="geometry" />
        </mxCell>
        <mxCell id="L6jPL3bvIjocPBfsfLAo-4" value="performacePlugin" style="rounded=1;whiteSpace=wrap;html=1;fillColor=#dae8fc;strokeColor=#6c8ebf;" vertex="1" parent="1">
          <mxGeometry x="300" y="240" width="120" height="60" as="geometry" />
        </mxCell>
        <mxCell id="L6jPL3bvIjocPBfsfLAo-6" value="HttpPlugin" style="rounded=1;whiteSpace=wrap;html=1;fillColor=#dae8fc;strokeColor=#6c8ebf;" vertex="1" parent="1">
          <mxGeometry x="300" y="420" width="120" height="60" as="geometry" />
        </mxCell>
        <mxCell id="L6jPL3bvIjocPBfsfLAo-7" value="JsErrorPlugin" style="rounded=1;whiteSpace=wrap;html=1;fillColor=#dae8fc;strokeColor=#6c8ebf;" vertex="1" parent="1">
          <mxGeometry x="300" y="510" width="120" height="60" as="geometry" />
        </mxCell>
        <mxCell id="L6jPL3bvIjocPBfsfLAo-8" value="QiankunPlugin" style="rounded=1;whiteSpace=wrap;html=1;fillColor=#dae8fc;strokeColor=#6c8ebf;dashed=1;" vertex="1" parent="1">
          <mxGeometry x="300" y="690" width="120" height="60" as="geometry" />
        </mxCell>
        <mxCell id="L6jPL3bvIjocPBfsfLAo-23" style="edgeStyle=orthogonalEdgeStyle;rounded=0;orthogonalLoop=1;jettySize=auto;html=1;entryX=0;entryY=0.5;entryDx=0;entryDy=0;" edge="1" parent="1" source="L6jPL3bvIjocPBfsfLAo-9" target="L6jPL3bvIjocPBfsfLAo-18">
          <mxGeometry relative="1" as="geometry" />
        </mxCell>
        <mxCell id="L6jPL3bvIjocPBfsfLAo-9" value="Client" style="ellipse;whiteSpace=wrap;html=1;fillColor=#d0cee2;strokeColor=#56517e;" vertex="1" parent="1">
          <mxGeometry x="530" y="455" width="120" height="80" as="geometry" />
        </mxCell>
        <mxCell id="L6jPL3bvIjocPBfsfLAo-14" value="push" style="text;html=1;strokeColor=none;fillColor=none;align=center;verticalAlign=middle;whiteSpace=wrap;rounded=0;" vertex="1" parent="1">
          <mxGeometry x="460" y="455" width="60" height="30" as="geometry" />
        </mxCell>
        <mxCell id="L6jPL3bvIjocPBfsfLAo-17" style="edgeStyle=orthogonalEdgeStyle;rounded=0;orthogonalLoop=1;jettySize=auto;html=1;entryX=0;entryY=0.5;entryDx=0;entryDy=0;" edge="1" parent="1" source="L6jPL3bvIjocPBfsfLAo-15" target="L6jPL3bvIjocPBfsfLAo-8">
          <mxGeometry relative="1" as="geometry" />
        </mxCell>
        <mxCell id="L6jPL3bvIjocPBfsfLAo-15" value="&lt;div style=&quot;font-size: 10px;&quot;&gt;&lt;span style=&quot;background-color: initial; font-size: 10px;&quot;&gt;采集子应用运行时错误以及 http 请求；&lt;/span&gt;&lt;/div&gt;&lt;div style=&quot;font-size: 10px;&quot;&gt;&lt;span style=&quot;background-color: initial; font-size: 10px;&quot;&gt;&lt;br style=&quot;font-size: 10px;&quot;&gt;&lt;/span&gt;&lt;/div&gt;&lt;div style=&quot;font-size: 10px;&quot;&gt;组装子应用名称和版本；&lt;/div&gt;" style="whiteSpace=wrap;html=1;aspect=fixed;fillColor=#f8cecc;strokeColor=#b85450;align=left;fontSize=10;" vertex="1" parent="1">
          <mxGeometry x="120" y="670" width="100" height="100" as="geometry" />
        </mxCell>
        <mxCell id="L6jPL3bvIjocPBfsfLAo-16" value="BlankScreenPlugin" style="rounded=1;whiteSpace=wrap;html=1;fillColor=#dae8fc;strokeColor=#6c8ebf;" vertex="1" parent="1">
          <mxGeometry x="300" y="600" width="120" height="60" as="geometry" />
        </mxCell>
        <mxCell id="L6jPL3bvIjocPBfsfLAo-28" value="" style="edgeStyle=orthogonalEdgeStyle;rounded=0;orthogonalLoop=1;jettySize=auto;html=1;" edge="1" parent="1" source="L6jPL3bvIjocPBfsfLAo-18" target="L6jPL3bvIjocPBfsfLAo-27">
          <mxGeometry relative="1" as="geometry" />
        </mxCell>
        <mxCell id="L6jPL3bvIjocPBfsfLAo-18" value="Sender" style="ellipse;whiteSpace=wrap;html=1;fillColor=#d5e8d4;strokeColor=#82b366;" vertex="1" parent="1">
          <mxGeometry x="730" y="455" width="120" height="80" as="geometry" />
        </mxCell>
        <mxCell id="L6jPL3bvIjocPBfsfLAo-31" style="edgeStyle=orthogonalEdgeStyle;rounded=0;orthogonalLoop=1;jettySize=auto;html=1;entryX=0.5;entryY=0;entryDx=0;entryDy=0;" edge="1" parent="1" source="L6jPL3bvIjocPBfsfLAo-19" target="L6jPL3bvIjocPBfsfLAo-9">
          <mxGeometry relative="1" as="geometry">
            <mxPoint x="690" y="370" as="targetPoint" />
          </mxGeometry>
        </mxCell>
        <mxCell id="L6jPL3bvIjocPBfsfLAo-19" value="Builder" style="ellipse;whiteSpace=wrap;html=1;fillColor=#d5e8d4;strokeColor=#82b366;" vertex="1" parent="1">
          <mxGeometry x="730" y="330" width="120" height="80" as="geometry" />
        </mxCell>
        <mxCell id="L6jPL3bvIjocPBfsfLAo-21" value="添加 meta 数据" style="text;html=1;strokeColor=none;fillColor=none;align=center;verticalAlign=middle;whiteSpace=wrap;rounded=0;" vertex="1" parent="1">
          <mxGeometry x="540" y="330" width="100" height="30" as="geometry" />
        </mxCell>
        <mxCell id="L6jPL3bvIjocPBfsfLAo-27" value="日志服务器" style="ellipse;shape=cloud;whiteSpace=wrap;html=1;fillColor=#fff2cc;strokeColor=#d6b656;" vertex="1" parent="1">
          <mxGeometry x="930" y="455" width="120" height="80" as="geometry" />
        </mxCell>
        <mxCell id="L6jPL3bvIjocPBfsfLAo-29" value="上报" style="text;html=1;align=center;verticalAlign=middle;resizable=0;points=[];autosize=1;strokeColor=none;fillColor=none;" vertex="1" parent="1">
          <mxGeometry x="860" y="455" width="50" height="30" as="geometry" />
        </mxCell>
      </root>
    </mxGraphModel>
  </diagram>
</mxfile>
